<?xml version="1.0" standalone="no"?>
<!DOCTYPE svg PUBLIC "-//W3C//DTD SVG 20010904//EN"
 "http://www.w3.org/TR/2001/REC-SVG-20010904/DTD/svg10.dtd">
<svg version="1.0" xmlns="http://www.w3.org/2000/svg"
 width="250.000000pt" height="250.000000pt" viewBox="0 0 250.000000 250.000000"
 preserveAspectRatio="xMidYMid meet">

<g transform="translate(0.000000,250.000000) scale(0.100000,-0.100000)"
fill="#000000" stroke="none">
<path d="M598 1711 l-33 -29 -5 -164 c-6 -174 -18 -220 -60 -233 -28 -9 -28
-61 0 -70 42 -13 54 -59 60 -233 l5 -164 33 -29 c25 -23 42 -29 77 -29 43 0
45 1 45 30 0 27 -3 30 -30 30 -43 0 -50 26 -50 179 0 157 -5 183 -42 223 l-29
31 22 15 c39 27 49 72 49 221 0 165 7 191 50 191 27 0 30 3 30 30 0 29 -2 30
-45 30 -35 0 -52 -6 -77 -29z"/>
<path d="M1770 1710 c0 -27 3 -30 30 -30 43 0 50 -26 50 -191 0 -151 10 -194
51 -223 l23 -16 -23 -16 c-41 -29 -51 -72 -51 -223 0 -165 -7 -191 -50 -191
-27 0 -30 -3 -30 -30 0 -29 2 -30 45 -30 35 0 52 6 77 29 l33 29 5 164 c6 174
18 220 60 233 14 4 20 15 20 35 0 20 -6 31 -20 35 -42 13 -54 59 -60 233 l-5
164 -33 29 c-25 23 -42 29 -77 29 -43 0 -45 -1 -45 -30z"/>
<path d="M1173 1646 c-99 -31 -148 -100 -141 -198 7 -94 56 -142 182 -179 137
-39 181 -67 192 -123 13 -73 -46 -126 -141 -126 -85 0 -145 42 -145 102 0 28
-1 28 -60 28 l-60 0 0 -35 c0 -28 4 -35 19 -35 11 0 23 -9 26 -21 4 -12 23
-39 42 -60 82 -90 259 -91 356 0 43 39 57 74 57 139 0 106 -51 154 -219 205
-122 38 -161 66 -161 120 0 70 67 114 161 105 58 -6 97 -30 111 -69 9 -27 13
-29 64 -29 l54 0 0 35 c0 26 -4 35 -16 35 -9 0 -34 20 -56 45 -60 68 -164 92
-265 61z"/>
</g>
</svg>
